# xmcd CD database file
#
# Track frame offsets:
#	150
#	13040
#	33862
#	46942
#	58175
#	69530
#	81932
#	93030
#	104385
#	116310
#
# Disc length: 1674 seconds
#
# Revision: 0
# Processed by: cddbd v1.5PL3 Copyright (c) Steve Scherf et al.
# Submitted via: CDex 1.50
#
DISCID=7506880a
DTITLE=The Whispers - Top Hits
DYEAR=1997
DGENRE=Rhythmic Soul
TTITLE0=You Make Me So Happy
TTITLE1=Creation Of Love
TTITLE2=I Can Remember
TTITLE3=Never Again
TTITLE4=Shake It, Shake It
TTITLE5=Seemes Like I Gotta Do Wrong
TTITLE6=Planets Of Life
TTITLE7=It Only Hurts For While
TTITLE8=You Must Be Doing Alright
TTITLE9=The Dip
EXTD=YEAR: 1997
EXTT0=
EXTT1=
EXTT2=
EXTT3=
EXTT4=
EXTT5=
EXTT6=
EXTT7=
EXTT8=
EXTT9=
PLAYORDER=
